<svg width="49" height="49" viewBox="0 0 49 49" fill="none" xmlns="http://www.w3.org/2000/svg">
<path d="M38.3426 23.2138L28.5834 10.9638C28.4149 10.754 28.2066 10.5796 27.9705 10.4507C27.7344 10.3217 27.4752 10.2406 27.2077 10.2122C26.9402 10.1837 26.6697 10.2084 26.4117 10.2848C26.1538 10.3613 25.9135 10.4879 25.7046 10.6575C25.4949 10.826 25.3205 11.0343 25.1916 11.2703C25.0626 11.5064 24.9815 11.7657 24.9531 12.0332C24.9246 12.3007 24.9493 12.5712 25.0257 12.8292C25.1021 13.0871 25.2288 13.3274 25.3984 13.5363L34.1163 24.5L24.9696 35.4638C24.7977 35.6701 24.6682 35.9083 24.5885 36.1647C24.5088 36.4211 24.4804 36.6908 24.5051 36.9582C24.5297 37.2256 24.6069 37.4855 24.7322 37.7231C24.8574 37.9606 25.0283 38.1711 25.2351 38.3425C25.6052 38.6395 26.0672 38.7984 26.5417 38.7917C26.8417 38.7922 27.138 38.7265 27.4097 38.5995C27.6815 38.4725 27.9218 38.2871 28.1138 38.0567L38.3221 25.8067C38.6253 25.4437 38.7931 24.9868 38.7968 24.5139C38.8005 24.041 38.64 23.5814 38.3426 23.2138Z" fill="black"/>
<path d="M14.2918 10.9638C13.9506 10.5279 13.4503 10.2453 12.9009 10.1783C12.3514 10.1113 11.7979 10.2653 11.362 10.6065C10.9261 10.9476 10.6435 11.4479 10.5765 11.9974C10.5095 12.5468 10.6635 13.1004 11.0047 13.5363L19.8247 24.5L10.678 35.4433C10.5061 35.6496 10.3766 35.8878 10.2969 36.1443C10.2171 36.4007 10.1888 36.6704 10.2135 36.9378C10.2381 37.2052 10.3153 37.4651 10.4405 37.7027C10.5658 37.9402 10.7367 38.1507 10.9434 38.3221C11.3107 38.6265 11.7731 38.7926 12.2501 38.7917C12.55 38.7922 12.8464 38.7266 13.1181 38.5995C13.3898 38.4725 13.6302 38.2871 13.8222 38.0567L24.0305 25.8067C24.3308 25.4413 24.495 24.9831 24.495 24.5102C24.495 24.0373 24.3308 23.5791 24.0305 23.2138L14.2918 10.9638Z" fill="black"/>
</svg>
