<svg width="54" height="52" viewBox="0 0 54 52" fill="none" xmlns="http://www.w3.org/2000/svg">
<path fill-rule="evenodd" clip-rule="evenodd" d="M12.8699 12.3933C13.1863 12.089 13.6152 11.9181 14.0624 11.9181C14.5095 11.9181 14.9385 12.089 15.2549 12.3933L26.9999 23.7033L38.7449 12.3933C38.8993 12.2337 39.0856 12.1056 39.2926 12.0168C39.4996 11.928 39.7231 11.8802 39.9497 11.8764C40.1763 11.8725 40.4013 11.9127 40.6115 11.9944C40.8216 12.0761 41.0125 12.1978 41.1727 12.3521C41.3329 12.5064 41.4593 12.6902 41.5441 12.8925C41.629 13.0949 41.6707 13.3116 41.6667 13.5298C41.6627 13.748 41.6131 13.9632 41.5209 14.1625C41.4286 14.3618 41.2957 14.5412 41.1299 14.69L29.3849 26L41.1299 37.31C41.2957 37.4588 41.4286 37.6382 41.5209 37.8375C41.6131 38.0368 41.6627 38.252 41.6667 38.4702C41.6707 38.6884 41.629 38.9051 41.5441 39.1075C41.4593 39.3098 41.3329 39.4936 41.1727 39.6479C41.0125 39.8022 40.8216 39.9239 40.6115 40.0056C40.4013 40.0873 40.1763 40.1275 39.9497 40.1236C39.7231 40.1198 39.4996 40.072 39.2926 39.9832C39.0856 39.8944 38.8993 39.7663 38.7449 39.6067L26.9999 28.2967L15.2549 39.6067C14.935 39.8937 14.5119 40.05 14.0747 40.0425C13.6375 40.0351 13.2204 39.8646 12.9112 39.5668C12.602 39.2691 12.4249 38.8674 12.4172 38.4465C12.4095 38.0255 12.5718 37.618 12.8699 37.31L24.6149 26L12.8699 14.69C12.5538 14.3853 12.3763 13.9723 12.3763 13.5417C12.3763 13.111 12.5538 12.698 12.8699 12.3933Z" fill="black"/>
</svg>
