<svg width="58" height="58" viewBox="0 0 58 58" fill="none" xmlns="http://www.w3.org/2000/svg">
<path d="M43.5 9.66666L48.3333 16.9167H41.0833L36.25 9.66666H31.4166L36.25 16.9167H29L24.1666 9.66666H19.3333L24.1666 16.9167H16.9166L12.0833 9.66666H9.66665C7.00831 9.66666 4.85748 11.8417 4.85748 14.5L4.83331 43.5C4.83331 46.1583 7.00831 48.3333 9.66665 48.3333H48.3333C50.9916 48.3333 53.1666 46.1583 53.1666 43.5V9.66666H43.5ZM27.1875 36.8542L24.1666 43.5L21.1458 36.8542L14.5 33.8333L21.1458 30.8125L24.1666 24.1667L27.1875 30.8125L33.8333 33.8333L27.1875 36.8542ZM40.9383 28.855L38.6666 33.8333L36.395 28.855L31.4166 26.5833L36.395 24.3117L38.6666 19.3333L40.9383 24.3117L45.9166 26.5833L40.9383 28.855Z" fill="white"/>
</svg>
