<svg width="300" height="440" viewBox="0 0 300 440" fill="none" xmlns="http://www.w3.org/2000/svg">
<rect width="300" height="440" fill="#C4C4C4"/>
<path d="M79.2203 183.28C80.2336 183.04 81.327 182.88 82.5003 182.8C83.6736 182.72 84.8336 182.68 85.9803 182.68C87.207 182.68 88.447 182.8 89.7003 183.04C90.9803 183.28 92.1403 183.72 93.1803 184.36C94.2203 185 95.0603 185.88 95.7003 187C96.367 188.12 96.7003 189.547 96.7003 191.28C96.7003 192.987 96.3936 194.427 95.7803 195.6C95.167 196.773 94.3536 197.733 93.3403 198.48C92.327 199.2 91.167 199.72 89.8603 200.04C88.5536 200.36 87.207 200.52 85.8203 200.52C85.687 200.52 85.4603 200.52 85.1403 200.52C84.847 200.52 84.527 200.52 84.1803 200.52C83.8603 200.493 83.5403 200.467 83.2203 200.44C82.9003 200.413 82.6736 200.387 82.5403 200.36V211H79.2203V183.28ZM86.0603 185.56C85.367 185.56 84.7003 185.573 84.0603 185.6C83.4203 185.627 82.9136 185.693 82.5403 185.8V197.4C82.6736 197.453 82.887 197.493 83.1803 197.52C83.4736 197.52 83.7803 197.533 84.1003 197.56C84.4203 197.56 84.727 197.56 85.0203 197.56C85.3136 197.56 85.527 197.56 85.6603 197.56C86.567 197.56 87.4603 197.48 88.3403 197.32C89.247 197.133 90.0603 196.813 90.7803 196.36C91.5003 195.907 92.0736 195.267 92.5003 194.44C92.9536 193.613 93.1803 192.56 93.1803 191.28C93.1803 190.187 92.967 189.28 92.5403 188.56C92.1403 187.813 91.5936 187.227 90.9003 186.8C90.2336 186.347 89.4736 186.027 88.6203 185.84C87.767 185.653 86.9136 185.56 86.0603 185.56ZM99.74 197C99.74 192.333 100.727 188.76 102.7 186.28C104.673 183.773 107.487 182.52 111.14 182.52C113.113 182.52 114.82 182.867 116.26 183.56C117.7 184.253 118.887 185.24 119.82 186.52C120.78 187.773 121.487 189.293 121.94 191.08C122.393 192.84 122.62 194.813 122.62 197C122.62 201.667 121.62 205.253 119.62 207.76C117.647 210.24 114.82 211.48 111.14 211.48C109.193 211.48 107.5 211.133 106.06 210.44C104.647 209.747 103.46 208.773 102.5 207.52C101.567 206.24 100.873 204.72 100.42 202.96C99.9667 201.173 99.74 199.187 99.74 197ZM103.26 197C103.26 198.547 103.407 200.013 103.7 201.4C104.02 202.787 104.5 204.013 105.14 205.08C105.78 206.12 106.593 206.96 107.58 207.6C108.593 208.213 109.78 208.52 111.14 208.52C113.62 208.52 115.567 207.587 116.98 205.72C118.393 203.827 119.1 200.92 119.1 197C119.1 195.48 118.94 194.027 118.62 192.64C118.327 191.227 117.847 190 117.18 188.96C116.54 187.893 115.713 187.053 114.7 186.44C113.713 185.8 112.527 185.48 111.14 185.48C108.687 185.48 106.753 186.427 105.34 188.32C103.953 190.187 103.26 193.08 103.26 197ZM140.884 203.88C140.884 202.76 140.55 201.853 139.884 201.16C139.217 200.44 138.377 199.813 137.364 199.28C136.377 198.72 135.297 198.2 134.124 197.72C132.95 197.24 131.857 196.667 130.844 196C129.857 195.307 129.03 194.467 128.364 193.48C127.697 192.467 127.364 191.187 127.364 189.64C127.364 187.453 128.124 185.72 129.644 184.44C131.164 183.16 133.324 182.52 136.124 182.52C137.75 182.52 139.23 182.64 140.564 182.88C141.897 183.12 142.937 183.427 143.684 183.8L142.684 186.72C142.07 186.427 141.164 186.147 139.964 185.88C138.79 185.613 137.457 185.48 135.964 185.48C134.204 185.48 132.884 185.88 132.004 186.68C131.124 187.453 130.684 188.373 130.684 189.44C130.684 190.48 131.017 191.347 131.684 192.04C132.35 192.733 133.177 193.36 134.164 193.92C135.177 194.453 136.27 194.987 137.444 195.52C138.617 196.053 139.697 196.68 140.684 197.4C141.697 198.093 142.537 198.933 143.204 199.92C143.87 200.907 144.204 202.133 144.204 203.6C144.204 204.8 143.99 205.88 143.564 206.84C143.137 207.8 142.51 208.627 141.684 209.32C140.857 210.013 139.857 210.547 138.684 210.92C137.51 211.293 136.177 211.48 134.684 211.48C132.684 211.48 131.03 211.32 129.724 211C128.417 210.707 127.404 210.373 126.684 210L127.804 207C128.417 207.347 129.324 207.693 130.524 208.04C131.724 208.36 133.07 208.52 134.564 208.52C135.444 208.52 136.27 208.44 137.044 208.28C137.817 208.093 138.484 207.813 139.044 207.44C139.604 207.04 140.044 206.547 140.364 205.96C140.71 205.373 140.884 204.68 140.884 203.88ZM167.574 185.96H158.854V211H155.534V185.96H146.814V183H167.574V185.96ZM171.681 183H186.921V185.96H175.001V195.12H185.921V198.08H175.001V208.04H187.121V211H171.681V183ZM193.127 183.28C194.14 183.093 195.3 182.947 196.607 182.84C197.94 182.733 199.153 182.68 200.247 182.68C201.473 182.68 202.633 182.813 203.727 183.08C204.847 183.347 205.82 183.787 206.647 184.4C207.5 185.013 208.18 185.813 208.687 186.8C209.193 187.787 209.447 188.987 209.447 190.4C209.447 192.587 208.847 194.36 207.647 195.72C206.447 197.08 204.927 197.987 203.087 198.44L205.007 199.92L211.967 211H208.087L200.367 198.92L196.447 198.32V211H193.127V183.28ZM200.327 185.56C199.98 185.56 199.62 185.56 199.247 185.56C198.873 185.56 198.513 185.573 198.167 185.6C197.82 185.627 197.487 185.653 197.167 185.68C196.873 185.707 196.633 185.747 196.447 185.8V196.12H199.567C201.407 196.12 202.927 195.667 204.127 194.76C205.327 193.853 205.927 192.44 205.927 190.52C205.927 189.08 205.433 187.893 204.447 186.96C203.46 186.027 202.087 185.56 200.327 185.56ZM49.3042 231H52.5042V249.68C52.5042 251.36 52.2776 252.813 51.8242 254.04C51.3976 255.267 50.7709 256.28 49.9442 257.08C49.1442 257.853 48.1709 258.427 47.0242 258.8C45.8776 259.173 44.6109 259.36 43.2242 259.36C39.9176 259.36 37.4242 258.613 35.7442 257.12C34.0642 255.627 33.2242 253.36 33.2242 250.32V231H36.5442V248.76C36.5442 250.173 36.6776 251.373 36.9442 252.36C37.2376 253.32 37.6642 254.107 38.2242 254.72C38.7842 255.307 39.4776 255.733 40.3042 256C41.1576 256.267 42.1442 256.4 43.2642 256.4C45.4242 256.4 46.9709 255.813 47.9042 254.64C48.8376 253.44 49.3042 251.48 49.3042 248.76V231ZM64.358 240.68L62.198 236.64H62.038L62.438 240.68V259H59.318V230.56H61.078L74.478 249.24L76.558 253.08H76.758L76.318 249.24V231H79.438V259.44H77.678L64.358 240.68ZM99.552 251.24H89.232L86.432 259H83.152L93.752 230.56H95.272L105.912 259H102.432L99.552 251.24ZM90.312 248.36H98.552L95.432 239.84L94.432 235.6H94.392L93.392 239.92L90.312 248.36ZM115.114 250.24L116.074 254.48H116.114L117.154 250.16L123.914 231H127.234L116.634 259.44H115.154L104.354 231H107.994L115.114 250.24ZM142.091 251.24H131.771L128.971 259H125.691L136.291 230.56H137.811L148.451 259H144.971L142.091 251.24ZM132.851 248.36H141.091L137.971 239.84L136.971 235.6H136.931L135.931 239.92L132.851 248.36ZM152.93 231H156.25V259H152.93V231ZM180.37 259H163.81V231H167.13V256.04H180.37V259ZM198.029 251.24H187.709L184.909 259H181.629L192.229 230.56H193.749L204.389 259H200.909L198.029 251.24ZM188.789 248.36H197.029L193.909 239.84L192.909 235.6H192.869L191.869 239.92L188.789 248.36ZM224.987 237.4C224.987 238.067 224.88 238.747 224.667 239.44C224.454 240.133 224.134 240.787 223.707 241.4C223.28 241.987 222.734 242.507 222.067 242.96C221.4 243.413 220.614 243.76 219.707 244V244.16C220.507 244.293 221.267 244.52 221.987 244.84C222.734 245.16 223.387 245.6 223.947 246.16C224.507 246.72 224.96 247.4 225.307 248.2C225.654 249 225.827 249.947 225.827 251.04C225.827 252.48 225.52 253.733 224.907 254.8C224.32 255.84 223.534 256.693 222.547 257.36C221.587 258.027 220.48 258.52 219.227 258.84C217.974 259.16 216.694 259.32 215.387 259.32C214.934 259.32 214.4 259.32 213.787 259.32C213.174 259.32 212.534 259.293 211.867 259.24C211.2 259.213 210.534 259.16 209.867 259.08C209.2 259.027 208.614 258.933 208.107 258.8V231.24C209.094 231.08 210.24 230.947 211.547 230.84C212.854 230.733 214.28 230.68 215.827 230.68C216.867 230.68 217.92 230.773 218.987 230.96C220.08 231.12 221.067 231.453 221.947 231.96C222.827 232.44 223.547 233.12 224.107 234C224.694 234.88 224.987 236.013 224.987 237.4ZM215.707 256.44C216.56 256.44 217.387 256.347 218.187 256.16C218.987 255.947 219.694 255.627 220.307 255.2C220.92 254.747 221.4 254.2 221.747 253.56C222.12 252.92 222.307 252.16 222.307 251.28C222.307 250.187 222.08 249.307 221.627 248.64C221.2 247.973 220.627 247.453 219.907 247.08C219.214 246.707 218.427 246.453 217.547 246.32C216.667 246.187 215.787 246.12 214.907 246.12H211.427V256.16C211.614 256.213 211.88 256.253 212.227 256.28C212.574 256.307 212.947 256.333 213.347 256.36C213.747 256.387 214.16 256.413 214.587 256.44C215.014 256.44 215.387 256.44 215.707 256.44ZM213.507 243.32C213.96 243.32 214.507 243.307 215.147 243.28C215.787 243.253 216.32 243.213 216.747 243.16C217.387 242.947 217.987 242.693 218.547 242.4C219.107 242.08 219.6 241.72 220.027 241.32C220.48 240.893 220.827 240.413 221.067 239.88C221.334 239.32 221.467 238.72 221.467 238.08C221.467 237.2 221.294 236.48 220.947 235.92C220.627 235.333 220.187 234.867 219.627 234.52C219.067 234.173 218.427 233.933 217.707 233.8C216.987 233.64 216.254 233.56 215.507 233.56C214.627 233.56 213.814 233.587 213.067 233.64C212.347 233.667 211.8 233.72 211.427 233.8V243.32H213.507ZM248.026 259H231.466V231H234.786V256.04H248.026V259ZM252.13 231H267.37V233.96H255.45V243.12H266.37V246.08H255.45V256.04H267.57V259H252.13V231Z" fill="black"/>
</svg>
