<svg width="402" height="440" viewBox="0 0 402 440" fill="none" xmlns="http://www.w3.org/2000/svg">
<rect x="51" width="300" height="440" fill="#C4C4C4"/>
<path d="M130.22 183.28C131.234 183.04 132.327 182.88 133.5 182.8C134.674 182.72 135.834 182.68 136.98 182.68C138.207 182.68 139.447 182.8 140.7 183.04C141.98 183.28 143.14 183.72 144.18 184.36C145.22 185 146.06 185.88 146.7 187C147.367 188.12 147.7 189.547 147.7 191.28C147.7 192.987 147.394 194.427 146.78 195.6C146.167 196.773 145.354 197.733 144.34 198.48C143.327 199.2 142.167 199.72 140.86 200.04C139.554 200.36 138.207 200.52 136.82 200.52C136.687 200.52 136.46 200.52 136.14 200.52C135.847 200.52 135.527 200.52 135.18 200.52C134.86 200.493 134.54 200.467 134.22 200.44C133.9 200.413 133.674 200.387 133.54 200.36V211H130.22V183.28ZM137.06 185.56C136.367 185.56 135.7 185.573 135.06 185.6C134.42 185.627 133.914 185.693 133.54 185.8V197.4C133.674 197.453 133.887 197.493 134.18 197.52C134.474 197.52 134.78 197.533 135.1 197.56C135.42 197.56 135.727 197.56 136.02 197.56C136.314 197.56 136.527 197.56 136.66 197.56C137.567 197.56 138.46 197.48 139.34 197.32C140.247 197.133 141.06 196.813 141.78 196.36C142.5 195.907 143.074 195.267 143.5 194.44C143.954 193.613 144.18 192.56 144.18 191.28C144.18 190.187 143.967 189.28 143.54 188.56C143.14 187.813 142.594 187.227 141.9 186.8C141.234 186.347 140.474 186.027 139.62 185.84C138.767 185.653 137.914 185.56 137.06 185.56ZM150.74 197C150.74 192.333 151.727 188.76 153.7 186.28C155.673 183.773 158.487 182.52 162.14 182.52C164.113 182.52 165.82 182.867 167.26 183.56C168.7 184.253 169.887 185.24 170.82 186.52C171.78 187.773 172.487 189.293 172.94 191.08C173.393 192.84 173.62 194.813 173.62 197C173.62 201.667 172.62 205.253 170.62 207.76C168.647 210.24 165.82 211.48 162.14 211.48C160.193 211.48 158.5 211.133 157.06 210.44C155.647 209.747 154.46 208.773 153.5 207.52C152.567 206.24 151.873 204.72 151.42 202.96C150.967 201.173 150.74 199.187 150.74 197ZM154.26 197C154.26 198.547 154.407 200.013 154.7 201.4C155.02 202.787 155.5 204.013 156.14 205.08C156.78 206.12 157.593 206.96 158.58 207.6C159.593 208.213 160.78 208.52 162.14 208.52C164.62 208.52 166.567 207.587 167.98 205.72C169.393 203.827 170.1 200.92 170.1 197C170.1 195.48 169.94 194.027 169.62 192.64C169.327 191.227 168.847 190 168.18 188.96C167.54 187.893 166.713 187.053 165.7 186.44C164.713 185.8 163.527 185.48 162.14 185.48C159.687 185.48 157.753 186.427 156.34 188.32C154.953 190.187 154.26 193.08 154.26 197ZM191.884 203.88C191.884 202.76 191.55 201.853 190.884 201.16C190.217 200.44 189.377 199.813 188.364 199.28C187.377 198.72 186.297 198.2 185.124 197.72C183.95 197.24 182.857 196.667 181.844 196C180.857 195.307 180.03 194.467 179.364 193.48C178.697 192.467 178.364 191.187 178.364 189.64C178.364 187.453 179.124 185.72 180.644 184.44C182.164 183.16 184.324 182.52 187.124 182.52C188.75 182.52 190.23 182.64 191.564 182.88C192.897 183.12 193.937 183.427 194.684 183.8L193.684 186.72C193.07 186.427 192.164 186.147 190.964 185.88C189.79 185.613 188.457 185.48 186.964 185.48C185.204 185.48 183.884 185.88 183.004 186.68C182.124 187.453 181.684 188.373 181.684 189.44C181.684 190.48 182.017 191.347 182.684 192.04C183.35 192.733 184.177 193.36 185.164 193.92C186.177 194.453 187.27 194.987 188.444 195.52C189.617 196.053 190.697 196.68 191.684 197.4C192.697 198.093 193.537 198.933 194.204 199.92C194.87 200.907 195.204 202.133 195.204 203.6C195.204 204.8 194.99 205.88 194.564 206.84C194.137 207.8 193.51 208.627 192.684 209.32C191.857 210.013 190.857 210.547 189.684 210.92C188.51 211.293 187.177 211.48 185.684 211.48C183.684 211.48 182.03 211.32 180.724 211C179.417 210.707 178.404 210.373 177.684 210L178.804 207C179.417 207.347 180.324 207.693 181.524 208.04C182.724 208.36 184.07 208.52 185.564 208.52C186.444 208.52 187.27 208.44 188.044 208.28C188.817 208.093 189.484 207.813 190.044 207.44C190.604 207.04 191.044 206.547 191.364 205.96C191.71 205.373 191.884 204.68 191.884 203.88ZM218.574 185.96H209.854V211H206.534V185.96H197.814V183H218.574V185.96ZM222.681 183H237.921V185.96H226.001V195.12H236.921V198.08H226.001V208.04H238.121V211H222.681V183ZM244.127 183.28C245.14 183.093 246.3 182.947 247.607 182.84C248.94 182.733 250.153 182.68 251.247 182.68C252.473 182.68 253.633 182.813 254.727 183.08C255.847 183.347 256.82 183.787 257.647 184.4C258.5 185.013 259.18 185.813 259.687 186.8C260.193 187.787 260.447 188.987 260.447 190.4C260.447 192.587 259.847 194.36 258.647 195.72C257.447 197.08 255.927 197.987 254.087 198.44L256.007 199.92L262.967 211H259.087L251.367 198.92L247.447 198.32V211H244.127V183.28ZM251.327 185.56C250.98 185.56 250.62 185.56 250.247 185.56C249.873 185.56 249.513 185.573 249.167 185.6C248.82 185.627 248.487 185.653 248.167 185.68C247.873 185.707 247.633 185.747 247.447 185.8V196.12H250.567C252.407 196.12 253.927 195.667 255.127 194.76C256.327 193.853 256.927 192.44 256.927 190.52C256.927 189.08 256.433 187.893 255.447 186.96C254.46 186.027 253.087 185.56 251.327 185.56ZM100.304 231H103.504V249.68C103.504 251.36 103.278 252.813 102.824 254.04C102.398 255.267 101.771 256.28 100.944 257.08C100.144 257.853 99.1709 258.427 98.0242 258.8C96.8776 259.173 95.6109 259.36 94.2242 259.36C90.9176 259.36 88.4242 258.613 86.7442 257.12C85.0642 255.627 84.2242 253.36 84.2242 250.32V231H87.5442V248.76C87.5442 250.173 87.6776 251.373 87.9442 252.36C88.2376 253.32 88.6642 254.107 89.2242 254.72C89.7842 255.307 90.4776 255.733 91.3042 256C92.1576 256.267 93.1442 256.4 94.2642 256.4C96.4242 256.4 97.9709 255.813 98.9042 254.64C99.8376 253.44 100.304 251.48 100.304 248.76V231ZM115.358 240.68L113.198 236.64H113.038L113.438 240.68V259H110.318V230.56H112.078L125.478 249.24L127.558 253.08H127.758L127.318 249.24V231H130.438V259.44H128.678L115.358 240.68ZM150.552 251.24H140.232L137.432 259H134.152L144.752 230.56H146.272L156.912 259H153.432L150.552 251.24ZM141.312 248.36H149.552L146.432 239.84L145.432 235.6H145.392L144.392 239.92L141.312 248.36ZM166.114 250.24L167.074 254.48H167.114L168.154 250.16L174.914 231H178.234L167.634 259.44H166.154L155.354 231H158.994L166.114 250.24ZM193.091 251.24H182.771L179.971 259H176.691L187.291 230.56H188.811L199.451 259H195.971L193.091 251.24ZM183.851 248.36H192.091L188.971 239.84L187.971 235.6H187.931L186.931 239.92L183.851 248.36ZM203.93 231H207.25V259H203.93V231ZM231.37 259H214.81V231H218.13V256.04H231.37V259ZM249.029 251.24H238.709L235.909 259H232.629L243.229 230.56H244.749L255.389 259H251.909L249.029 251.24ZM239.789 248.36H248.029L244.909 239.84L243.909 235.6H243.869L242.869 239.92L239.789 248.36ZM275.987 237.4C275.987 238.067 275.88 238.747 275.667 239.44C275.454 240.133 275.134 240.787 274.707 241.4C274.28 241.987 273.734 242.507 273.067 242.96C272.4 243.413 271.614 243.76 270.707 244V244.16C271.507 244.293 272.267 244.52 272.987 244.84C273.734 245.16 274.387 245.6 274.947 246.16C275.507 246.72 275.96 247.4 276.307 248.2C276.654 249 276.827 249.947 276.827 251.04C276.827 252.48 276.52 253.733 275.907 254.8C275.32 255.84 274.534 256.693 273.547 257.36C272.587 258.027 271.48 258.52 270.227 258.84C268.974 259.16 267.694 259.32 266.387 259.32C265.934 259.32 265.4 259.32 264.787 259.32C264.174 259.32 263.534 259.293 262.867 259.24C262.2 259.213 261.534 259.16 260.867 259.08C260.2 259.027 259.614 258.933 259.107 258.8V231.24C260.094 231.08 261.24 230.947 262.547 230.84C263.854 230.733 265.28 230.68 266.827 230.68C267.867 230.68 268.92 230.773 269.987 230.96C271.08 231.12 272.067 231.453 272.947 231.96C273.827 232.44 274.547 233.12 275.107 234C275.694 234.88 275.987 236.013 275.987 237.4ZM266.707 256.44C267.56 256.44 268.387 256.347 269.187 256.16C269.987 255.947 270.694 255.627 271.307 255.2C271.92 254.747 272.4 254.2 272.747 253.56C273.12 252.92 273.307 252.16 273.307 251.28C273.307 250.187 273.08 249.307 272.627 248.64C272.2 247.973 271.627 247.453 270.907 247.08C270.214 246.707 269.427 246.453 268.547 246.32C267.667 246.187 266.787 246.12 265.907 246.12H262.427V256.16C262.614 256.213 262.88 256.253 263.227 256.28C263.574 256.307 263.947 256.333 264.347 256.36C264.747 256.387 265.16 256.413 265.587 256.44C266.014 256.44 266.387 256.44 266.707 256.44ZM264.507 243.32C264.96 243.32 265.507 243.307 266.147 243.28C266.787 243.253 267.32 243.213 267.747 243.16C268.387 242.947 268.987 242.693 269.547 242.4C270.107 242.08 270.6 241.72 271.027 241.32C271.48 240.893 271.827 240.413 272.067 239.88C272.334 239.32 272.467 238.72 272.467 238.08C272.467 237.2 272.294 236.48 271.947 235.92C271.627 235.333 271.187 234.867 270.627 234.52C270.067 234.173 269.427 233.933 268.707 233.8C267.987 233.64 267.254 233.56 266.507 233.56C265.627 233.56 264.814 233.587 264.067 233.64C263.347 233.667 262.8 233.72 262.427 233.8V243.32H264.507ZM299.026 259H282.466V231H285.786V256.04H299.026V259ZM303.13 231H318.37V233.96H306.45V243.12H317.37V246.08H306.45V256.04H318.57V259H303.13V231Z" fill="black"/>
</svg>
