<svg width="49" height="49" viewBox="0 0 49 49" fill="none" xmlns="http://www.w3.org/2000/svg">
<path d="M35.4638 25.2962L24.5 34.1162L13.5567 24.9696C13.3502 24.798 13.112 24.6687 12.8556 24.5892C12.5992 24.5097 12.3297 24.4814 12.0624 24.5061C11.795 24.5307 11.5352 24.6078 11.2977 24.7329C11.0601 24.8579 10.8495 25.0285 10.6779 25.235C10.5064 25.4414 10.3771 25.6797 10.2976 25.9361C10.218 26.1925 10.1898 26.462 10.2144 26.7293C10.2391 26.9967 10.3161 27.2565 10.4412 27.494C10.5663 27.7316 10.7369 27.9422 10.9434 28.1137L23.1934 38.3221C23.5587 38.6224 24.0169 38.7865 24.4898 38.7865C24.9627 38.7865 25.421 38.6224 25.7863 38.3221L38.0363 28.4608C38.246 28.2923 38.4204 28.0841 38.5494 27.848C38.6783 27.6119 38.7594 27.3526 38.7879 27.0851C38.8163 26.8176 38.7916 26.5471 38.7152 26.2892C38.6388 26.0312 38.5121 25.7909 38.3425 25.5821C38.1726 25.3739 37.9632 25.2012 37.7264 25.0741C37.4896 24.947 37.23 24.8679 36.9625 24.8413C36.6951 24.8148 36.425 24.8413 36.1678 24.9194C35.9106 24.9974 35.6714 25.1255 35.4638 25.2962Z" fill="black"/>
<path d="M23.1934 24.0304C23.5587 24.3307 24.0169 24.4949 24.4898 24.4949C24.9627 24.4949 25.421 24.3307 25.7863 24.0304L38.0363 14.1692C38.246 14.0007 38.4204 13.7924 38.5494 13.5563C38.6783 13.3202 38.7594 13.061 38.7879 12.7935C38.8163 12.5259 38.7916 12.2554 38.7152 11.9975C38.6388 11.7395 38.5121 11.4993 38.3425 11.2904C38.174 11.0807 37.9658 10.9063 37.7297 10.7773C37.4936 10.6484 37.2343 10.5673 36.9668 10.5388C36.6993 10.5104 36.4288 10.5351 36.1709 10.6115C35.9129 10.6879 35.6726 10.8146 35.4638 10.9842L24.5 19.8246L13.5567 10.6779C13.1398 10.3314 12.6022 10.1646 12.0624 10.2144C11.5225 10.2642 11.0245 10.5264 10.678 10.9433C10.3314 11.3603 10.1647 11.8978 10.2144 12.4377C10.2642 12.9775 10.5264 13.4755 10.9434 13.8221L23.1934 24.0304Z" fill="black"/>
</svg>
